<?xml version="1.0" encoding="utf-8"?>
<!-- Generator: Adobe Illustrator 14.0.0, SVG Export Plug-In . SVG Version: 6.00 Build 43363)  -->
<!DOCTYPE svg PUBLIC "-//W3C//DTD SVG 1.1//EN" "http://www.w3.org/Graphics/SVG/1.1/DTD/svg11.dtd">
<svg version="1.1" id="Layer_1" xmlns="http://www.w3.org/2000/svg" xmlns:xlink="http://www.w3.org/1999/xlink" x="0px" y="0px"
	 width="432px" height="432px" viewBox="0 0 432 432" enable-background="new 0 0 432 432" xml:space="preserve">
<g>
	<g>
		<path fill-rule="evenodd" clip-rule="evenodd" d="M319,167c1.158,11.694-4.383,18.599-9,27c5.087,11.175,14.956,17.274,25,26
			c4.707,4.09,12.477,17.733,21,18c11.209,0.351,28.153-16.799,46-18c9.913-0.667,18.213-3.41,28,1c-2.88,23.559-38.38,22.876-52,39
			c6.009,19.067,21.251,32.729,22,56c0.59,18.336-10.904,34.053-20,48c-18.992,1.523-19.748,26.327-43,18
			c-7.479-2.679-19.457-16.912-28-27c-17.22-20.332-4.192-40.371,3-65c5.868-10.318,22.21-17.075,21-30
			c-0.943-10.082-15.069-14.438-22-20c-6.709-5.384-10.591-16.418-19-17c-12.924-0.895-15.76,15.533-23,23
			c-8.055,8.307-19.771,12.483-28,20c19.73,19.28,44.522,39.124,47,67c3.796,42.71-42.076,54.233-77,53
			c-20.931-0.739-53.425-15.307-55-32c-0.968-10.259,8.426-28.687,15-38c8.497-12.038,31.018-24.596,30-41
			c-0.626-10.092-19.614-23.135-27-29c-2.246-1.783-2.675-6.211-5-8c-4.624-3.558-13.83-5.966-19-11
			c-4.207-4.096-10.095-14.807-15-15c-9.603-0.378-14.367,15.212-21,24c-5.693,7.542-18.904,10.712-19,21
			c-0.15,16.142,34.467,27.705,39,44c27.998,64.274-65.32,107.689-99,56c-9.975-23.153-9.324-43.567,5-66
			c11.678-18.288,22.625-20.375,5-38c-3.791-3.791-22.098-22.907-2-26c13.416-2.064,20.021,11.965,28,12
			c17.318,0.076,25.229-32.152,44-37c-5.944-33.973-40.236-57.538-27-100c3.042-9.76,13.195-14.896,20-23
			c22.419-9.069,54.122-0.334,77,10c11.137,5.031,27.028,27.371,39,27c7.079-0.219,18.713-13.21,28-18
			c20.155-10.395,70.438-20.021,82,8C340.238,121.118,333.231,159.029,319,167z M109,115c-2.452,17.311,16.91,57.338,28,59
			c12.607,1.889,20.6-14.314,28-20c4.99-3.834,28.442-12.162,29-21c1.151-18.238-53.688-36.392-66-35
			C119.459,98.965,110.327,105.628,109,115z M262,117c-20.545,7.861-23.667,17.206-10,33c4.174,4.824,22.777,27.378,33,27
			c11.144-0.412,12.746-14.502,16-25c5.944-19.178,18.452-45.68-11-43C280.313,109.881,272.298,113.06,262,117z M238,173
			c-1.974-2.514-2.56-6.45-4-8c-17.523-18.861-31.872-12.479-50,1c-11.302,8.404-45.282,33.545-14,37
			c14.368,22.298,34.266,39.067,59,51c7.812-8.854,10.983-22.351,26-24c3.044-3.147,0.517-6.35,2-10
			C289.406,206.299,250.163,188.49,238,173z M330,331c5.938,33.16,43.863,18.497,39-16c-1.806-12.808-13.982-19.314-16-30
			C338.937,287.172,326.232,309.955,330,331z M62,344c9.725,22.828,48.039,3.067,48-19c-0.021-11.886-26.352-39.241-33-38
			C61.062,289.976,53.875,324.927,62,344z M184,343c2.748,24.516,65.994,18.392,73,2c5.073-27.455-14.379-49.324-38-51
			C208.56,304.37,181.986,325.033,184,343z"/>
	</g>
</g>
</svg>
