<?xml version="1.0" encoding="UTF-8" standalone="no"?>
<svg
   xmlns:dc="http://purl.org/dc/elements/1.1/"
   xmlns:cc="http://creativecommons.org/ns#"
   xmlns:rdf="http://www.w3.org/1999/02/22-rdf-syntax-ns#"
   xmlns:svg="http://www.w3.org/2000/svg"
   xmlns="http://www.w3.org/2000/svg"
   viewBox="0 0 855 1080"
   height="1080"
   width="855"
   xml:space="preserve"
   version="1.1"
   id="svg2"><metadata
     id="metadata8"><rdf:RDF><cc:Work
         rdf:about=""><dc:format>image/svg+xml</dc:format><dc:type
           rdf:resource="http://purl.org/dc/dcmitype/StillImage" /><dc:title></dc:title></cc:Work></rdf:RDF></metadata><defs
     id="defs6"><clipPath
       id="clipPath16"
       clipPathUnits="userSpaceOnUse"><path
         id="path18"
         d="M 0,864 684,864 684,0 0,0 0,864 Z" /></clipPath></defs><g
     transform="matrix(1.25,0,0,-1.25,0,1080)"
     id="g10"><g
       style="stroke-width:0.8;stroke-miterlimit:4;stroke-dasharray:none;fill:none;fill-opacity:1"
       id="g12"><g
         style="stroke-width:0.8;stroke-miterlimit:4;stroke-dasharray:none;fill:none;fill-opacity:1"
         clip-path="url(#clipPath16)"
         id="g14"><g
           style="stroke-width:0.8;stroke-miterlimit:4;stroke-dasharray:none;fill:none;fill-opacity:1"
           transform="translate(288.3218,683.9907)"
           id="g20"><path
             id="path22"
             style="fill:none;stroke:#231f20;stroke-width:0.8;stroke-linecap:butt;stroke-linejoin:miter;stroke-miterlimit:4;stroke-dasharray:none;stroke-opacity:1;fill-opacity:1"
             d="m 0,0 c -6.419,0 -11.629,3.475 -11.625,7.751 -0.003,4.285 5.206,7.755 11.629,7.755 6.424,0 11.632,-3.47 11.63,-7.753 C 11.634,3.471 6.428,0 0,0 Z m -33.887,19.204 c -6.425,0 -11.634,3.473 -11.634,7.754 0,4.282 5.209,7.752 11.633,7.757 6.425,-0.005 11.632,-3.471 11.633,-7.757 10e-4,-4.283 -5.208,-7.754 -11.632,-7.754 z M -53.4,-30.831 c -6.423,-0.004 -11.631,3.471 -11.63,7.749 -0.002,4.287 5.208,7.76 11.632,7.76 6.424,0 11.632,-3.471 11.628,-7.758 0.001,-4.28 -5.206,-7.755 -11.63,-7.751 z m -25.538,77.262 c 0,4.281 5.204,7.759 11.624,7.757 6.428,-0.002 11.637,-3.473 11.634,-7.758 -10e-4,-4.279 -5.206,-7.752 -11.634,-7.752 -6.42,-10e-4 -11.626,3.472 -11.624,7.753 z m -8.358,-58.064 c -6.426,-0.002 -11.627,3.47 -11.63,7.751 0,4.284 5.204,7.757 11.63,7.757 6.422,0 11.63,-3.469 11.633,-7.757 -0.001,-4.281 -5.207,-7.753 -11.633,-7.751 z M -120.72,7.841 c -6.42,0 -11.628,3.475 -11.626,7.752 -0.004,4.284 5.206,7.755 11.63,7.755 6.424,0 11.632,-3.471 11.63,-7.753 -0.001,-4.283 -5.206,-7.754 -11.634,-7.754 z M -60.304,78.095 -175.226,11.745 -60.307,-54.603 54.614,11.748 -60.304,78.095 Z" /></g><g
           style="stroke-width:0.8;stroke-miterlimit:4;stroke-dasharray:none;fill:none;fill-opacity:1"
           transform="translate(193.3071,514.9824)"
           id="g24"><path
             id="path26"
             style="fill:none;stroke:#231f20;stroke-width:0.8;stroke-linecap:butt;stroke-linejoin:miter;stroke-miterlimit:4;stroke-dasharray:none;stroke-opacity:1;fill-opacity:1"
             d="m 0,0 c -3.709,-2.141 -9.321,0.631 -12.534,6.196 -3.213,5.563 -2.81,11.81 0.899,13.95 3.712,2.143 9.322,-0.629 12.532,-6.195 C 4.109,8.388 3.706,2.141 0,0 Z m 0.152,38.687 c -3.71,-2.141 -9.319,0.626 -12.533,6.192 -3.211,5.562 -2.811,11.81 0.901,13.951 3.708,2.142 9.318,-0.631 12.53,-6.196 C 4.261,47.071 3.858,40.828 0.152,38.687 Z m -11.945,59.098 c 3.707,2.141 9.317,-0.636 12.528,-6.197 3.212,-5.563 2.811,-11.808 -0.897,-13.951 -3.71,-2.141 -9.32,0.633 -12.533,6.196 -3.213,5.562 -2.81,11.811 0.902,13.952 z M -53.248,69.518 c -3.711,-2.142 -9.322,0.631 -12.533,6.196 -3.211,5.562 -2.811,11.807 0.9,13.95 3.709,2.141 9.319,-0.633 12.53,-6.198 3.214,-5.562 2.809,-11.807 -0.897,-13.948 z M -53.407,30.84 c -3.709,-2.143 -9.319,0.629 -12.531,6.188 -3.21,5.566 -2.812,11.813 0.902,13.953 3.708,2.14 9.318,-0.629 12.53,-6.199 3.211,-5.558 2.808,-11.805 -0.901,-13.942 z m -11.792,97.772 c 3.709,2.143 9.319,-0.629 12.531,-6.195 3.212,-5.561 2.809,-11.808 -0.898,-13.949 -3.712,-2.142 -9.322,0.631 -12.533,6.197 -3.214,5.561 -2.81,11.808 0.9,13.947 z m 90.216,-30.995 -114.921,66.349 0,-132.701 114.921,-66.35 0,132.702 z" /></g><g
           style="stroke-width:0.8;stroke-miterlimit:4;stroke-dasharray:none;fill:none;fill-opacity:1"
           transform="translate(335.4541,564.0605)"
           id="g28"><path
             id="path30"
             style="fill:none;stroke:#231f20;stroke-width:0.8;stroke-linecap:butt;stroke-linejoin:miter;stroke-miterlimit:4;stroke-dasharray:none;stroke-opacity:1;fill-opacity:1"
             d="m 0,0 c -3.212,-5.562 -8.821,-8.336 -12.53,-6.197 -3.708,2.143 -4.112,8.388 -0.903,13.953 3.215,5.561 8.823,8.338 12.533,6.195 C 2.811,11.809 3.214,5.564 0,0 Z m -13.433,69.421 c 3.215,5.563 8.823,8.338 12.533,6.197 3.708,-2.142 4.112,-8.387 0.898,-13.951 -3.212,-5.563 -8.819,-8.335 -12.53,-6.196 -3.708,2.143 -4.112,8.386 -0.901,13.95 z m -20.142,-26.96 c -3.213,-5.562 -8.82,-8.336 -12.531,-6.197 -3.708,2.143 -4.112,8.389 -0.9,13.953 3.214,5.563 8.822,8.338 12.533,6.194 3.708,-2.141 4.113,-8.384 0.898,-13.95 z m 0,-61.668 c -3.213,-5.563 -8.822,-8.335 -12.531,-6.196 -3.708,2.143 -4.112,8.386 -0.902,13.95 3.214,5.563 8.821,8.337 12.533,6.196 3.71,-2.141 4.115,-8.386 0.9,-13.95 z m -33.577,41.916 c -3.21,-5.561 -8.821,-8.336 -12.529,-6.196 -3.711,2.143 -4.115,8.388 -0.901,13.951 3.212,5.564 8.823,8.338 12.531,6.195 3.708,-2.141 4.113,-8.384 0.899,-13.95 z m 0,-61.668 c -3.212,-5.563 -8.821,-8.336 -12.532,-6.196 -3.708,2.143 -4.112,8.387 -0.899,13.951 3.213,5.563 8.822,8.337 12.532,6.196 3.708,-2.141 4.113,-8.386 0.899,-13.951 z m -30.591,87.501 0,-132.706 114.921,66.351 0,132.706 -114.921,-66.351 z" /></g><g
           style="stroke-width:0.8;stroke-miterlimit:4;stroke-dasharray:none;fill:none;fill-opacity:1"
           transform="translate(237.7109,479.897)"
           id="g32"><path
             id="path34"
             style="fill:#000000;stroke:#231f20;stroke-width:0.8;stroke-linecap:butt;stroke-linejoin:miter;stroke-miterlimit:4;stroke-dasharray:none;stroke-opacity:1;fill-opacity:1"
             d="m 0,0 0,132.706 114.921,66.35 0,-132.705 L 0,0 Z m -134.308,199.052 114.921,-66.349 0,-132.703 -114.921,66.351 0,132.701 z M -9.696,149.491 -124.615,215.839 -9.693,282.188 105.225,215.841 -9.696,149.491 Z m 143.991,66.517 c -0.006,0.344 -0.026,0.688 -0.069,1.032 -0.018,0.142 -0.049,0.28 -0.074,0.42 -0.039,0.23 -0.082,0.458 -0.137,0.686 -0.041,0.168 -0.089,0.333 -0.139,0.498 -0.059,0.193 -0.125,0.385 -0.197,0.576 -0.063,0.168 -0.123,0.336 -0.195,0.5 -0.084,0.191 -0.182,0.378 -0.279,0.565 -0.133,0.256 -0.274,0.504 -0.429,0.747 -0.122,0.191 -0.243,0.382 -0.375,0.562 -0.097,0.131 -0.202,0.256 -0.306,0.383 -0.144,0.175 -0.291,0.346 -0.446,0.51 -0.103,0.109 -0.207,0.217 -0.315,0.321 -0.203,0.196 -0.413,0.38 -0.631,0.556 -0.074,0.06 -0.143,0.126 -0.221,0.184 -0.295,0.225 -0.603,0.429 -0.92,0.617 -0.036,0.021 -0.066,0.047 -0.102,0.068 L -4.847,301.775 c -2.999,1.731 -6.693,1.731 -9.692,0 l -134.308,-77.542 c -0.023,-0.014 -0.043,-0.031 -0.066,-0.045 -0.342,-0.2 -0.674,-0.419 -0.991,-0.663 -0.019,-0.015 -0.036,-0.031 -0.054,-0.045 -0.283,-0.221 -0.553,-0.461 -0.812,-0.715 -0.072,-0.07 -0.141,-0.142 -0.211,-0.215 -0.203,-0.211 -0.395,-0.432 -0.581,-0.664 -0.064,-0.081 -0.131,-0.159 -0.193,-0.242 -0.225,-0.301 -0.439,-0.614 -0.632,-0.947 -0.005,-0.008 -0.009,-0.016 -0.013,-0.024 -0.192,-0.333 -0.356,-0.675 -0.505,-1.02 -0.04,-0.095 -0.074,-0.193 -0.112,-0.289 -0.108,-0.275 -0.204,-0.552 -0.285,-0.833 -0.028,-0.098 -0.056,-0.195 -0.082,-0.294 -0.088,-0.346 -0.16,-0.695 -0.21,-1.044 -0.004,-0.029 -0.011,-0.058 -0.015,-0.087 -0.051,-0.393 -0.075,-0.786 -0.078,-1.179 0,-0.03 -0.006,-0.058 -0.006,-0.088 l 0,-155.085 c 0,-3.462 1.848,-6.662 4.846,-8.394 l 134.308,-77.542 c 0.024,-0.014 0.05,-0.023 0.074,-0.036 0.344,-0.196 0.7,-0.374 1.07,-0.527 0.019,-0.007 0.039,-0.013 0.057,-0.021 0.336,-0.136 0.683,-0.251 1.036,-0.349 0.094,-0.026 0.188,-0.049 0.281,-0.072 0.289,-0.072 0.582,-0.129 0.88,-0.174 0.099,-0.014 0.196,-0.033 0.295,-0.045 0.379,-0.045 0.762,-0.074 1.153,-0.074 0.391,0 0.774,0.029 1.153,0.074 0.099,0.012 0.197,0.031 0.296,0.046 0.298,0.044 0.59,0.101 0.878,0.173 0.095,0.023 0.189,0.046 0.283,0.072 0.351,0.098 0.696,0.212 1.03,0.347 0.021,0.009 0.043,0.015 0.064,0.024 0.368,0.152 0.722,0.329 1.066,0.524 0.025,0.014 0.051,0.024 0.076,0.038 L 129.46,52.36 c 2.998,1.732 4.846,4.932 4.846,8.394 l 0,155.085 c 0,0.057 -0.011,0.112 -0.011,0.169 z" /></g><g
           style="stroke-width:0.8;stroke-miterlimit:4;stroke-dasharray:none;fill:none;fill-opacity:1"
           transform="translate(267.4033,600.7197)"
           id="g36"><path
             id="path38"
             style="fill:#000000;stroke:#231f20;stroke-width:0.8;stroke-linecap:butt;stroke-linejoin:miter;stroke-miterlimit:4;stroke-dasharray:none;stroke-opacity:1;fill-opacity:1"
             d="m 0,0 c -3.708,2.143 -9.319,-0.631 -12.531,-6.195 -3.214,-5.563 -2.81,-11.808 0.901,-13.951 3.708,-2.14 9.318,0.635 12.528,6.196 C 4.112,-8.384 3.708,-2.142 0,0 Z" /></g><g
           style="stroke-width:0.8;stroke-miterlimit:4;stroke-dasharray:none;fill:none;fill-opacity:1"
           transform="translate(300.9814,620.4717)"
           id="g40"><path
             id="path42"
             style="fill:#000000;stroke:#231f20;stroke-width:0.8;stroke-linecap:butt;stroke-linejoin:miter;stroke-miterlimit:4;stroke-dasharray:none;stroke-opacity:1;fill-opacity:1"
             d="m 0,0 c -3.711,2.144 -9.319,-0.631 -12.534,-6.194 -3.212,-5.564 -2.807,-11.81 0.901,-13.953 3.711,-2.14 9.318,0.635 12.531,6.197 C 4.112,-8.384 3.708,-2.141 0,0 Z" /></g><g
           style="stroke-width:0.8;stroke-miterlimit:4;stroke-dasharray:none;fill:none;fill-opacity:1"
           transform="translate(322.9219,619.5312)"
           id="g44"><path
             id="path46"
             style="fill:#000000;stroke:#231f20;stroke-width:0.8;stroke-linecap:butt;stroke-linejoin:miter;stroke-miterlimit:4;stroke-dasharray:none;stroke-opacity:1;fill-opacity:1"
             d="m 0,0 c 3.711,-2.139 9.318,0.634 12.53,6.197 3.214,5.564 2.81,11.808 -0.898,13.95 C 7.922,22.288 2.314,19.514 -0.9,13.95 -4.112,8.387 -3.708,2.144 0,0 Z" /></g><g
           style="stroke-width:0.8;stroke-miterlimit:4;stroke-dasharray:none;fill:none;fill-opacity:1"
           transform="translate(267.4033,539.0527)"
           id="g48"><path
             id="path50"
             style="fill:#000000;stroke:#231f20;stroke-width:0.8;stroke-linecap:butt;stroke-linejoin:miter;stroke-miterlimit:4;stroke-dasharray:none;stroke-opacity:1;fill-opacity:1"
             d="m 0,0 c -3.71,2.141 -9.319,-0.633 -12.533,-6.196 -3.212,-5.564 -2.808,-11.808 0.9,-13.951 3.711,-2.14 9.32,0.632 12.531,6.196 C 4.112,-8.386 3.708,-2.141 0,0 Z" /></g><g
           style="stroke-width:0.8;stroke-miterlimit:4;stroke-dasharray:none;fill:none;fill-opacity:1"
           transform="translate(300.979,558.8037)"
           id="g52"><path
             id="path54"
             style="fill:#000000;stroke:#231f20;stroke-width:0.8;stroke-linecap:butt;stroke-linejoin:miter;stroke-miterlimit:4;stroke-dasharray:none;stroke-opacity:1;fill-opacity:1"
             d="m 0,0 c -3.711,2.141 -9.319,-0.633 -12.533,-6.196 -3.21,-5.564 -2.806,-11.807 0.902,-13.95 3.709,-2.14 9.318,0.633 12.531,6.196 C 4.115,-8.386 3.71,-2.141 0,0 Z" /></g><g
           style="stroke-width:0.8;stroke-miterlimit:4;stroke-dasharray:none;fill:none;fill-opacity:1"
           transform="translate(334.5542,578.0112)"
           id="g56"><path
             id="path58"
             style="fill:#000000;stroke:#231f20;stroke-width:0.8;stroke-linecap:butt;stroke-linejoin:miter;stroke-miterlimit:4;stroke-dasharray:none;stroke-opacity:1;fill-opacity:1"
             d="m 0,0 c -3.71,2.144 -9.318,-0.633 -12.533,-6.195 -3.209,-5.564 -2.805,-11.809 0.903,-13.953 3.709,-2.139 9.318,0.636 12.53,6.197 C 4.114,-8.387 3.71,-2.142 0,0 Z" /></g><g
           style="stroke-width:0.8;stroke-miterlimit:4;stroke-dasharray:none;fill:none;fill-opacity:1"
           transform="translate(128.4263,604.6465)"
           id="g60"><path
             id="path62"
             style="fill:#000000;stroke:#231f20;stroke-width:0.8;stroke-linecap:butt;stroke-linejoin:miter;stroke-miterlimit:4;stroke-dasharray:none;stroke-opacity:1;fill-opacity:1"
             d="m 0,0 c -3.711,-2.143 -4.111,-8.388 -0.9,-13.95 3.211,-5.565 8.822,-8.338 12.533,-6.196 3.706,2.141 4.111,8.386 0.897,13.948 C 9.319,-0.633 3.708,2.141 0,0 Z" /></g><g
           style="stroke-width:0.8;stroke-miterlimit:4;stroke-dasharray:none;fill:none;fill-opacity:1"
           transform="translate(193.1455,592.6191)"
           id="g64"><path
             id="path66"
             style="fill:#000000;stroke:#231f20;stroke-width:0.8;stroke-linecap:butt;stroke-linejoin:miter;stroke-miterlimit:4;stroke-dasharray:none;stroke-opacity:1;fill-opacity:1"
             d="m 0,0 c 3.708,2.144 4.109,8.389 0.897,13.951 -3.211,5.562 -8.822,8.338 -12.529,6.197 -3.711,-2.141 -4.115,-8.39 -0.901,-13.951 C -9.32,0.633 -3.71,-2.141 0,0 Z" /></g><g
           style="stroke-width:0.8;stroke-miterlimit:4;stroke-dasharray:none;fill:none;fill-opacity:1"
           transform="translate(181.8267,573.8125)"
           id="g68"><path
             id="path70"
             style="fill:#000000;stroke:#231f20;stroke-width:0.8;stroke-linecap:butt;stroke-linejoin:miter;stroke-miterlimit:4;stroke-dasharray:none;stroke-opacity:1;fill-opacity:1"
             d="m 0,0 c -3.711,-2.141 -4.112,-8.389 -0.901,-13.951 3.215,-5.566 8.824,-8.333 12.533,-6.192 3.706,2.141 4.109,8.384 0.898,13.947 C 9.318,-0.631 3.708,2.142 0,0 Z" /></g><g
           style="stroke-width:0.8;stroke-miterlimit:4;stroke-dasharray:none;fill:none;fill-opacity:1"
           transform="translate(181.6724,535.1279)"
           id="g72"><path
             id="path74"
             style="fill:#000000;stroke:#231f20;stroke-width:0.8;stroke-linecap:butt;stroke-linejoin:miter;stroke-miterlimit:4;stroke-dasharray:none;stroke-opacity:1;fill-opacity:1"
             d="m 0,0 c -3.709,-2.14 -4.112,-8.387 -0.899,-13.949 3.213,-5.566 8.825,-8.338 12.534,-6.197 3.705,2.142 4.109,8.389 0.897,13.951 C 9.321,-0.629 3.711,2.144 0,0 Z" /></g><g
           style="stroke-width:0.8;stroke-miterlimit:4;stroke-dasharray:none;fill:none;fill-opacity:1"
           transform="translate(139.7407,623.4502)"
           id="g76"><path
             id="path78"
             style="fill:#000000;stroke:#231f20;stroke-width:0.8;stroke-linecap:butt;stroke-linejoin:miter;stroke-miterlimit:4;stroke-dasharray:none;stroke-opacity:1;fill-opacity:1"
             d="m 0,0 c 3.707,2.141 4.11,8.389 0.898,13.95 -3.211,5.566 -8.822,8.338 -12.531,6.195 -3.709,-2.14 -4.113,-8.387 -0.899,-13.948 C -9.321,0.631 -3.711,-2.142 0,0 Z" /></g><g
           style="stroke-width:0.8;stroke-miterlimit:4;stroke-dasharray:none;fill:none;fill-opacity:1"
           transform="translate(128.271,565.9639)"
           id="g80"><path
             id="path82"
             style="fill:#000000;stroke:#231f20;stroke-width:0.8;stroke-linecap:butt;stroke-linejoin:miter;stroke-miterlimit:4;stroke-dasharray:none;stroke-opacity:1;fill-opacity:1"
             d="m 0,0 c -3.714,-2.14 -4.112,-8.387 -0.901,-13.953 3.212,-5.559 8.821,-8.332 12.53,-6.188 3.709,2.137 4.112,8.384 0.901,13.941 C 9.318,-0.63 3.708,2.139 0,0 Z" /></g><g
           style="stroke-width:0.8;stroke-miterlimit:4;stroke-dasharray:none;fill:none;fill-opacity:1"
           transform="translate(254.4341,718.7056)"
           id="g84"><path
             id="path86"
             style="fill:#000000;stroke:#231f20;stroke-width:0.8;stroke-linecap:butt;stroke-linejoin:miter;stroke-miterlimit:4;stroke-dasharray:none;stroke-opacity:1;fill-opacity:1"
             d="m 0,0 c -6.424,-0.004 -11.633,-3.475 -11.633,-7.757 0,-4.281 5.209,-7.754 11.633,-7.754 6.425,0 11.634,3.471 11.633,7.754 C 11.632,-3.471 6.425,-0.004 0,0 Z" /></g><g
           style="stroke-width:0.8;stroke-miterlimit:4;stroke-dasharray:none;fill:none;fill-opacity:1"
           transform="translate(234.9233,668.6685)"
           id="g88"><path
             id="path90"
             style="fill:#000000;stroke:#231f20;stroke-width:0.8;stroke-linecap:butt;stroke-linejoin:miter;stroke-miterlimit:4;stroke-dasharray:none;stroke-opacity:1;fill-opacity:1"
             d="m 0,0 c -6.424,0 -11.634,-3.473 -11.632,-7.759 -10e-4,-4.279 5.207,-7.754 11.63,-7.75 6.425,-0.004 11.632,3.471 11.631,7.752 C 11.632,-3.471 6.424,0 0,0 Z" /></g><g
           style="stroke-width:0.8;stroke-miterlimit:4;stroke-dasharray:none;fill:none;fill-opacity:1"
           transform="translate(201.0259,687.8652)"
           id="g92"><path
             id="path94"
             style="fill:#000000;stroke:#231f20;stroke-width:0.8;stroke-linecap:butt;stroke-linejoin:miter;stroke-miterlimit:4;stroke-dasharray:none;stroke-opacity:1;fill-opacity:1"
             d="m 0,0 c -6.426,0 -11.63,-3.473 -11.63,-7.756 0.003,-4.281 5.204,-7.754 11.63,-7.751 6.426,-0.003 11.632,3.47 11.633,7.751 C 11.63,-3.469 6.422,0 0,0 Z" /></g><g
           style="stroke-width:0.8;stroke-miterlimit:4;stroke-dasharray:none;fill:none;fill-opacity:1"
           transform="translate(167.606,707.3389)"
           id="g96"><path
             id="path98"
             style="fill:#000000;stroke:#231f20;stroke-width:0.8;stroke-linecap:butt;stroke-linejoin:miter;stroke-miterlimit:4;stroke-dasharray:none;stroke-opacity:1;fill-opacity:1"
             d="m 0,0 c -6.424,0 -11.634,-3.471 -11.63,-7.755 -0.002,-4.277 5.206,-7.752 11.626,-7.752 6.428,0 11.632,3.471 11.634,7.754 C 11.632,-3.471 6.424,0 0,0 Z" /></g><g
           style="stroke-width:0.8;stroke-miterlimit:4;stroke-dasharray:none;fill:none;fill-opacity:1"
           transform="translate(288.3262,699.4971)"
           id="g100"><path
             id="path102"
             style="fill:#000000;stroke:#231f20;stroke-width:0.8;stroke-linecap:butt;stroke-linejoin:miter;stroke-miterlimit:4;stroke-dasharray:none;stroke-opacity:1;fill-opacity:1"
             d="m 0,0 c -6.424,0 -11.632,-3.471 -11.63,-7.755 -0.003,-4.276 5.206,-7.751 11.626,-7.751 6.428,0 11.633,3.47 11.633,7.753 C 11.632,-3.471 6.424,0 0,0 Z" /></g><g
           style="stroke-width:0.8;stroke-miterlimit:4;stroke-dasharray:none;fill:none;fill-opacity:1"
           transform="translate(232.6421,730.4204)"
           id="g104"><path
             id="path106"
             style="fill:#000000;stroke:#231f20;stroke-width:0.8;stroke-linecap:butt;stroke-linejoin:miter;stroke-miterlimit:4;stroke-dasharray:none;stroke-opacity:1;fill-opacity:1"
             d="m 0,0 c 0.002,4.286 -5.206,7.756 -11.635,7.759 -6.419,0.002 -11.623,-3.476 -11.623,-7.758 -0.002,-4.28 5.204,-7.754 11.623,-7.753 6.429,0 11.634,3.474 11.635,7.752 z" /></g></g></g></g></svg>